<svg xmlns="http://www.w3.org/2000/svg" version="1.1" xmlns:xlink="http://www.w3.org/1999/xlink" viewBox="0 0 200 200"><rect width="200" height="200" fill="url('#gradient')"></rect><defs><linearGradient id="gradient" gradientTransform="rotate(45 0.5 0.5)"><stop offset="0%" stop-color="#472027"></stop><stop offset="100%" stop-color="#192025"></stop></linearGradient></defs><g><g fill="#f3bd7d" transform="matrix(6.589917769038255,0,0,6.589917769038255,10.181486649165038,146.85369108419653)" stroke="#c06a3e" stroke-width="0.2"><path d="M9.98 0L9.15-2.66L4.45-2.66L3.63 0L-0.03 0L5.19-14.22L8.41-14.22L13.66 0L9.98 0ZM6.80-10.23L5.27-5.30L8.33-5.30L6.80-10.23ZM23.60 0L22.77-2.66L18.08-2.66L17.26 0L13.59 0L18.81-14.22L22.03-14.22L27.29 0L23.60 0ZM20.42-10.23L18.90-5.30L21.95-5.30L20.42-10.23Z"></path></g></g></svg>